<svg version="1.1" xmlns="http://www.w3.org/2000/svg" xmlns:xlink="http://www.w3.org/1999/xlink" width="48" height="48" viewBox="0,0,256,256"><g fill="#ff0000" fill-rule="nonzero" stroke="none" stroke-width="1" stroke-linecap="butt" stroke-linejoin="miter" stroke-miterlimit="10" stroke-dasharray="" stroke-dashoffset="0" font-family="none" font-weight="none" font-size="none" text-anchor="none" style="mix-blend-mode: normal"><g transform="translate(0,-23.6) scale(0.26667,0.26667)"><path d="M480,935l-41,-37c-70.66667,-64.66667 -129,-120.5 -175,-167.5c-46,-47 -82.66667,-89 -110,-126c-27.33333,-37 -46.5,-70.5 -57.5,-100.5c-11,-30 -16.5,-60.33333 -16.5,-91c0,-60 20.16667,-110.16667 60.5,-150.5c40.33333,-40.33333 90.16667,-60.5 149.5,-60.5c38,0 73.16667,9 105.5,27c32.33333,18 60.5,44 84.5,78c28,-36 57.66667,-62.5 89,-79.5c31.33333,-17 65,-25.5 101,-25.5c59.33333,0 109.16667,20.16667 149.5,60.5c40.33333,40.33333 60.5,90.5 60.5,150.5c0,30.66667 -5.5,61 -16.5,91c-11,30 -30.16667,63.5 -57.5,100.5c-27.33333,37 -64,79 -110,126c-46,47 -104.33333,102.83333 -175,167.5z"></path></g></g></svg>