<svg version="1.1" xmlns="http://www.w3.org/2000/svg" xmlns:xlink="http://www.w3.org/1999/xlink" width="48" height="48" viewBox="0,0,256,256"><g fill="#ffffff" fill-rule="nonzero" stroke="none" stroke-width="1" stroke-linecap="butt" stroke-linejoin="miter" stroke-miterlimit="10" stroke-dasharray="" stroke-dashoffset="0" font-family="none" font-weight="none" font-size="none" text-anchor="none" style="mix-blend-mode: normal"><g transform="translate(0,-23.6) scale(0.26667,0.26667)"><path d="M480,935l-41,-37c-70.512,-64.74733 -128.80667,-120.601 -174.884,-167.561c-46.07733,-46.95933 -82.78267,-88.939 -110.116,-125.939c-27.33333,-37 -46.5,-70.5 -57.5,-100.5c-11,-30 -16.5,-60.33333 -16.5,-91c0,-60.10333 20.16667,-110.29567 60.5,-150.577c40.33333,-40.282 90.16667,-60.423 149.5,-60.423c38,0 73.16667,9 105.5,27c32.33333,18 60.5,44 84.5,78c28,-36 57.66667,-62.5 89,-79.5c31.33333,-17 65,-25.5 101,-25.5c59.33333,0 109.16667,20.141 149.5,60.423c40.33333,40.28133 60.5,90.47367 60.5,150.577c0,30.66667 -5.5,61 -16.5,91c-11,30 -30.16667,63.5 -57.5,100.5c-27.33333,37 -64.03867,78.97967 -110.116,125.939c-46.07733,46.96 -104.372,102.81367 -174.884,167.561zM480,856c67.49067,-61.99667 123.03,-115.16267 166.618,-159.498c43.588,-44.33467 78.21533,-83.16867 103.882,-116.502c25.66667,-33.33333 43.66667,-63.045 54,-89.135c10.33333,-26.09067 15.5,-51.99733 15.5,-77.72c0,-44.09667 -14,-80.31167 -42,-108.645c-28,-28.33333 -63.925,-42.5 -107.775,-42.5c-34.34933,0 -66.141,10.5 -95.375,31.5c-29.23333,21 -52.85,50.5 -70.85,88.5h-49c-17.33333,-37.33333 -40.61667,-66.66667 -69.85,-88c-29.234,-21.33333 -61.02567,-32 -95.375,-32c-43.85,0 -79.775,14.16667 -107.775,42.5c-28,28.33333 -42,64.60533 -42,108.816c0,25.78933 5.16667,51.85067 15.5,78.184c10.33333,26.33333 28.33333,56.33333 54,90c25.66667,33.66667 60.5,72.5 104.5,116.5c44,44 99.33333,96.66667 166,158zM480,559z"></path></g></g></svg>